<svg xmlns="http://www.w3.org/2000/svg" width="533" height="401" fill="none" viewBox="0 0 533 401">
  <rect width="533" height="401" fill="#1D1D1D" rx="50"/>
  <g filter="url(#a)">
    <ellipse cx="267" cy="200.5" fill="#9AA2FD" fill-opacity=".79" rx="123" ry="119.5"/>
    <ellipse cx="267" cy="200.5" fill="url(#b)" fill-opacity=".83" rx="123" ry="119.5"/>
  </g>
  <path fill="#fff" d="m106.029 219 16-35h3.65l16 35h-3.9l-14.7-32.85h1.5l-14.7 32.85h-3.85Zm6.3-9.35 1.1-3h20.35l1.1 3h-22.55Zm35.14 9.35v-35h13.1c2.966 0 5.516.483 7.65 1.45 2.133.933 3.766 2.3 4.9 4.1 1.166 1.767 1.75 3.917 1.75 6.45 0 2.467-.584 4.6-1.75 6.4-1.134 1.767-2.767 3.133-4.9 4.1-2.134.967-4.684 1.45-7.65 1.45h-11.05l1.65-1.75V219h-3.7Zm3.7-12.5-1.65-1.8h10.95c3.5 0 6.15-.75 7.95-2.25 1.833-1.533 2.75-3.683 2.75-6.45 0-2.8-.917-4.967-2.75-6.5-1.8-1.533-4.45-2.3-7.95-2.3h-10.95l1.65-1.75v21.05Zm31.7 12.5v-35h13.1c2.967 0 5.517.483 7.65 1.45 2.133.933 3.767 2.3 4.9 4.1 1.167 1.767 1.75 3.917 1.75 6.45 0 2.467-.583 4.6-1.75 6.4-1.133 1.767-2.767 3.133-4.9 4.1-2.133.967-4.683 1.45-7.65 1.45h-11.05l1.65-1.75V219h-3.7Zm3.7-12.5-1.65-1.8h10.95c3.5 0 6.15-.75 7.95-2.25 1.833-1.533 2.75-3.683 2.75-6.45 0-2.8-.917-4.967-2.75-6.5-1.8-1.533-4.45-2.3-7.95-2.3h-10.95l1.65-1.75v21.05Zm37.328 12.5v-31.8h-12.3V184h28.3v3.2h-12.3V219h-3.7Zm14.554 0 16-35h3.65l16 35h-3.9l-14.7-32.85h1.5l-14.7 32.85h-3.85Zm6.3-9.35 1.1-3h20.35l1.1 3h-22.55ZM279.89 219v-35h14.25c3.734 0 7 .75 9.8 2.25 2.834 1.467 5.034 3.517 6.6 6.15 1.567 2.633 2.35 5.667 2.35 9.1s-.783 6.467-2.35 9.1c-1.566 2.633-3.766 4.7-6.6 6.2-2.8 1.467-6.066 2.2-9.8 2.2h-14.25Zm3.7-3.2h10.35c3.1 0 5.784-.6 8.05-1.8 2.3-1.233 4.084-2.917 5.35-5.05 1.267-2.167 1.9-4.65 1.9-7.45 0-2.833-.633-5.317-1.9-7.45-1.266-2.133-3.05-3.8-5.35-5-2.266-1.233-4.95-1.85-8.05-1.85h-10.35v28.6Zm51.709 3.5c-4.467 0-7.983-1.283-10.55-3.85-2.567-2.567-3.85-6.367-3.85-11.4V184h3.7v19.9c0 4.133.933 7.183 2.8 9.15 1.867 1.967 4.5 2.95 7.9 2.95 3.433 0 6.083-.983 7.95-2.95s2.8-5.017 2.8-9.15V184h3.6v20.05c0 5.033-1.283 8.833-3.85 11.4-2.533 2.567-6.033 3.85-10.5 3.85Zm25.5-.3v-35h13.1c2.966 0 5.516.483 7.65 1.45 2.133.933 3.766 2.3 4.9 4.1 1.166 1.767 1.75 3.917 1.75 6.45 0 2.467-.584 4.6-1.75 6.4-1.134 1.767-2.767 3.133-4.9 4.1-2.134.933-4.684 1.4-7.65 1.4h-11.05l1.65-1.7V219h-3.7Zm23.9 0-9-12.7h4l9.05 12.7h-4.05Zm-20.2-12.5-1.65-1.75h10.95c3.5 0 6.15-.767 7.95-2.3 1.833-1.533 2.75-3.683 2.75-6.45 0-2.8-.917-4.967-2.75-6.5-1.8-1.533-4.45-2.3-7.95-2.3h-10.95l1.65-1.75v21.05Zm26.832 12.5 16-35h3.65l16 35h-3.9l-14.7-32.85h1.5l-14.7 32.85h-3.85Zm6.3-9.35 1.1-3h20.35l1.1 3h-22.55Z"/>
  <defs>
    <radialGradient id="b" cx="0" cy="0" r="1" gradientTransform="matrix(0 119.5 -123 0 267 200.5)" gradientUnits="userSpaceOnUse">
      <stop stop-color="#A608A6"/>
      <stop offset="1" stop-color="#A608A6" stop-opacity="0"/>
    </radialGradient>
    <filter id="a" width="256" height="249" x="139" y="76" color-interpolation-filters="sRGB" filterUnits="userSpaceOnUse">
      <feFlood flood-opacity="0" result="BackgroundImageFix"/>
      <feBlend in="SourceGraphic" in2="BackgroundImageFix" result="shape"/>
      <feGaussianBlur result="effect1_foregroundBlur_31_206" stdDeviation="2.5"/>
    </filter>
  </defs>
</svg>
