<svg xmlns="http://www.w3.org/2000/svg" width="533" height="406" fill="none" viewBox="0 0 533 406">
  <rect width="533" height="401" fill="#1D1D1D" rx="50"/>
  <path fill="#fff" d="M44.863 129v-17.5h6.55c1.483 0 2.758.242 3.825.725 1.066.467 1.883 1.15 2.45 2.05.583.883.875 1.958.875 3.225 0 1.233-.292 2.3-.875 3.2-.567.883-1.384 1.567-2.45 2.05-1.067.483-2.342.725-3.825.725h-5.525l.825-.875v6.4h-1.85Zm1.85-6.25-.825-.9h5.475c1.75 0 3.075-.375 3.975-1.125.916-.767 1.375-1.842 1.375-3.225 0-1.4-.459-2.483-1.375-3.25-.9-.767-2.225-1.15-3.975-1.15h-5.475l.825-.875v10.525Zm23.744 6.4c-1.317 0-2.542-.217-3.675-.65a9.075 9.075 0 0 1-2.925-1.875 9.141 9.141 0 0 1-1.925-2.825c-.45-1.083-.675-2.267-.675-3.55s.225-2.458.675-3.525a8.769 8.769 0 0 1 1.925-2.825 8.54 8.54 0 0 1 2.925-1.875c1.117-.45 2.342-.675 3.675-.675 1.317 0 2.533.225 3.65.675a8.465 8.465 0 0 1 2.9 1.85 8.27 8.27 0 0 1 1.925 2.825c.467 1.083.7 2.267.7 3.55s-.233 2.467-.7 3.55a8.27 8.27 0 0 1-1.925 2.825 8.785 8.785 0 0 1-2.9 1.875c-1.117.433-2.333.65-3.65.65Zm0-1.65c1.05 0 2.017-.175 2.9-.525a6.964 6.964 0 0 0 2.325-1.525 7.178 7.178 0 0 0 1.55-2.3c.367-.883.55-1.85.55-2.9 0-1.05-.183-2.008-.55-2.875a6.835 6.835 0 0 0-1.55-2.3 6.483 6.483 0 0 0-2.325-1.525c-.883-.367-1.85-.55-2.9-.55-1.05 0-2.025.183-2.925.55-.9.35-1.683.858-2.35 1.525a7.364 7.364 0 0 0-1.55 2.3c-.367.867-.55 1.825-.55 2.875 0 1.033.183 1.992.55 2.875.383.883.9 1.658 1.55 2.325a7.247 7.247 0 0 0 2.35 1.525 8 8 0 0 0 2.925.525Zm13.322 1.5v-17.5h6.55c1.483 0 2.758.242 3.825.725 1.066.467 1.883 1.15 2.45 2.05.583.883.875 1.958.875 3.225 0 1.233-.292 2.3-.875 3.2-.567.883-1.384 1.567-2.45 2.05-1.067.467-2.342.7-3.825.7h-5.525l.825-.85v6.4h-1.85Zm11.95 0-4.5-6.35h2l4.525 6.35h-2.025Zm-10.1-6.25-.825-.875h5.475c1.75 0 3.075-.383 3.975-1.15.916-.767 1.375-1.842 1.375-3.225 0-1.4-.459-2.483-1.375-3.25-.9-.767-2.225-1.15-3.975-1.15h-5.475l.825-.875v10.525Zm24.409-3.425h9.25v1.575h-9.25v-1.575Zm.2 8.075h10.525v1.6h-12.375v-17.5h12v1.6h-10.15v14.3Zm14.874 1.6v-17.5h1.85v15.9h9.8v1.6h-11.65Zm21.264 0v-17.5h7.55c1.95 0 3.459.392 4.525 1.175 1.084.783 1.625 1.892 1.625 3.325 0 .95-.225 1.75-.675 2.4-.433.65-1.033 1.142-1.8 1.475-.75.333-1.575.5-2.475.5l.425-.6c1.117 0 2.075.175 2.875.525.817.333 1.45.842 1.9 1.525.45.667.675 1.5.675 2.5 0 1.483-.55 2.633-1.65 3.45-1.083.817-2.725 1.225-4.925 1.225h-8.05Zm1.85-1.525h6.175c1.534 0 2.709-.258 3.525-.775.817-.533 1.225-1.375 1.225-2.525 0-1.133-.408-1.958-1.225-2.475-.816-.533-1.991-.8-3.525-.8h-6.375v-1.525h5.775c1.4 0 2.484-.267 3.25-.8.784-.533 1.175-1.325 1.175-2.375 0-1.067-.391-1.858-1.175-2.375-.766-.533-1.85-.8-3.25-.8h-5.575v14.45ZM165.224 129v-17.5h1.85V129h-1.85Zm9.194-9.675h9.25v1.575h-9.25v-1.575Zm.2 8.075h10.525v1.6h-12.375v-17.5h12v1.6h-10.15v14.3Zm14.874 1.6v-17.5h1.525l12.075 15.2h-.8v-15.2h1.825V129h-1.525l-12.05-15.2h.8V129h-1.85Zm21.987-9.675h9.25v1.575h-9.25v-1.575Zm.2 8.075h10.525v1.6h-12.375v-17.5h12v1.6h-10.15v14.3Zm19.698 1.75c-1.3 0-2.55-.208-3.75-.625-1.183-.433-2.1-.983-2.75-1.65l.725-1.425c.617.6 1.442 1.108 2.475 1.525 1.05.4 2.15.6 3.3.6 1.1 0 1.992-.133 2.675-.4.7-.283 1.208-.658 1.525-1.125.333-.467.5-.983.5-1.55 0-.683-.2-1.233-.6-1.65-.383-.417-.892-.742-1.525-.975a15.543 15.543 0 0 0-2.1-.65c-.767-.183-1.533-.375-2.3-.575-.767-.217-1.475-.5-2.125-.85a4.574 4.574 0 0 1-1.55-1.375c-.383-.583-.575-1.342-.575-2.275 0-.867.225-1.658.675-2.375.467-.733 1.175-1.317 2.125-1.75.95-.45 2.167-.675 3.65-.675.983 0 1.958.142 2.925.425.967.267 1.8.642 2.5 1.125l-.625 1.475c-.75-.5-1.55-.867-2.4-1.1a8.99 8.99 0 0 0-2.425-.35c-1.05 0-1.917.142-2.6.425-.683.283-1.192.667-1.525 1.15a2.78 2.78 0 0 0-.475 1.6c0 .683.192 1.233.575 1.65.4.417.917.742 1.55.975.65.233 1.358.442 2.125.625.767.183 1.525.383 2.275.6.767.217 1.467.5 2.1.85.65.333 1.167.783 1.55 1.35.4.567.6 1.308.6 2.225 0 .85-.233 1.642-.7 2.375-.467.717-1.183 1.3-2.15 1.75-.95.433-2.175.65-3.675.65Zm13.712-.15v-15.9h-6.15v-1.6h14.15v1.6h-6.15V129h-1.85Zm7.276 0 8-17.5h1.825l8 17.5h-1.95l-7.35-16.425h.75L254.29 129h-1.925Zm3.15-4.675.55-1.5h10.175l.55 1.5h-11.275Zm17.57 4.675v-17.5h6.55c1.484 0 2.759.242 3.825.725 1.067.467 1.884 1.15 2.45 2.05.584.883.875 1.958.875 3.225 0 1.233-.291 2.3-.875 3.2-.566.883-1.383 1.567-2.45 2.05-1.066.467-2.341.7-3.825.7h-5.525l.825-.85v6.4h-1.85Zm11.95 0-4.5-6.35h2l4.525 6.35h-2.025Zm-10.1-6.25-.825-.875h5.475c1.75 0 3.075-.383 3.975-1.15.917-.767 1.375-1.842 1.375-3.225 0-1.4-.458-2.483-1.375-3.25-.9-.767-2.225-1.15-3.975-1.15h-5.475l.825-.875v10.525Zm24.41-3.425h9.25v1.575h-9.25v-1.575Zm.2 8.075h10.525v1.6h-12.375v-17.5h12v1.6h-10.15v14.3Zm14.873 1.6v-17.5h1.525l12.075 15.2h-.8v-15.2h1.825V129h-1.525l-12.05-15.2h.8V129h-1.85Zm24.08 0 8-17.5h1.825l8 17.5h-1.95l-7.35-16.425h.75L340.423 129h-1.925Zm3.15-4.675.55-1.5h10.175l.55 1.5h-11.275Zm17.57 4.675v-17.5h6.55c1.483 0 2.758.242 3.825.725 1.067.467 1.883 1.15 2.45 2.05.583.883.875 1.958.875 3.225 0 1.233-.292 2.3-.875 3.2-.567.883-1.383 1.567-2.45 2.05-1.067.467-2.342.7-3.825.7h-5.525l.825-.85v6.4h-1.85Zm11.95 0-4.5-6.35h2l4.525 6.35h-2.025Zm-10.1-6.25-.825-.875h5.475c1.75 0 3.075-.383 3.975-1.15.917-.767 1.375-1.842 1.375-3.225 0-1.4-.458-2.483-1.375-3.25-.9-.767-2.225-1.15-3.975-1.15h-5.475l.825-.875v10.525Zm23.892 6.4c-1.334 0-2.567-.217-3.7-.65a9.066 9.066 0 0 1-2.925-1.875 8.751 8.751 0 0 1-1.925-2.825c-.45-1.083-.675-2.267-.675-3.55s.225-2.467.675-3.55a8.559 8.559 0 0 1 1.95-2.825 8.729 8.729 0 0 1 2.925-1.85c1.133-.45 2.366-.675 3.7-.675 1.333 0 2.55.208 3.65.625a7.285 7.285 0 0 1 2.85 1.9l-1.15 1.175c-.734-.733-1.542-1.258-2.425-1.575a8.381 8.381 0 0 0-2.85-.475c-1.084 0-2.084.183-3 .55-.9.35-1.692.858-2.375 1.525a7.146 7.146 0 0 0-1.575 2.3c-.367.867-.55 1.825-.55 2.875 0 1.033.183 1.992.55 2.875a7.445 7.445 0 0 0 1.575 2.325 7.538 7.538 0 0 0 2.375 1.525c.916.35 1.908.525 2.975.525 1 0 1.941-.15 2.825-.45.9-.3 1.725-.808 2.475-1.525l1.05 1.4a8.613 8.613 0 0 1-2.925 1.675c-1.117.367-2.284.55-3.5.55Zm4.65-2.45v-6.45h1.775v6.675l-1.775-.225Zm8.661-7.375h9.25v1.575h-9.25v-1.575Zm.2 8.075h10.525v1.6h-12.375v-17.5h12v1.6h-10.15v14.3Zm14.873 1.6v-17.5h1.525l12.075 15.2h-.8v-15.2h1.825V129h-1.525l-12.05-15.2h.8V129h-1.85Zm23.737 0v-15.9h-6.15v-1.6h14.15v1.6h-6.15V129h-1.85Zm10.956 0v-17.5h1.85V129h-1.85Zm7.543 0v-17.5h1.525l12.075 15.2h-.8v-15.2h1.825V129h-1.525l-12.05-15.2h.8V129h-1.85Zm17.537 0 8-17.5h1.825l8 17.5h-1.95l-7.35-16.425h.75L475.042 129h-1.925Zm3.15-4.675.55-1.5h10.175l.55 1.5h-11.275Z"/>
  <g filter="url(#a)">
    <ellipse cx="266" cy="281.5" fill="#9AA2FD" fill-opacity=".79" rx="123" ry="119.5"/>
    <ellipse cx="266" cy="281.5" fill="#A608A6" fill-opacity=".83" rx="123" ry="119.5"/>
  </g>
  <g filter="url(#b)">
    <circle cx="266" cy="288" r="98" fill="url(#c)" fill-opacity=".79"/>
  </g>
  <g filter="url(#d)">
    <ellipse cx="266" cy="308" fill="#A608A6" fill-opacity=".22" rx="81" ry="84"/>
  </g>
  <path fill="#EEC4EE" d="M171.854 371.239 120 400.306h295l-50.425-29.067H171.854Z"/>
  <path fill="#1D1D1D" d="m246.721 329.329-10.924 17.451 20.952 24.469h21.129l19.698-24.883-12.193-17.037h-38.662Z"/>
  <path fill="#1D1D1D" d="M235.797 346.78s-46.993 3.572-58.782 15.675c-11.788 12.103-6.242 25.244 5.241 25.244 21.136 0 65.857 1.271 87.016 0l1.262-28.335-34.737-12.584Z"/>
  <path fill="#1D1D1D" d="M296.36 346.178s49.211 4.175 61 16.278c11.788 12.102 4.995 20.121-5.241 25.243-14.404 7.214-66.323 6.018-93.251-2.745l4.98-25.59 32.512-13.186Z"/>
  <path fill="#E3AB95" d="m298.525 369.947-3.328-8.454 4.146-1.813s-.573-5.002 4.499-5.965c5.071-.963 11.115 2.257 17.005-.338 5.431-2.392 12.079-4.596 18.283-1.287a2.144 2.144 0 0 1 1.033 2.543l-.023.075c-.314.985-1.293 1.595-2.341 1.489-2.188-.218-6.089-.173-9.945 2.121-6.647 3.972-29.329 11.629-29.329 11.629Z"/>
  <path fill="#1D1D1D" d="M337.241 370.429s-32.841-5.739-102.018-6.627l-6.678 8.906s17.212 9.673 33.368 13.171c16.156 3.498 71.931 14.51 96.839-2.452l-21.511-12.998Z"/>
  <path stroke="#444359" stroke-linecap="round" stroke-miterlimit="10" stroke-width="1.593" d="M261.913 385.886c-16.562-3.761-33.889-13.404-33.889-13.404l1.033-1.722m6.166-6.958s76.001-1.708 96.28 9.861m-133.588-5.017s13.876-6.394 23.362-2.204"/>
  <path fill="#E3AB95" d="m230.143 371.234 5.072-7.598-5.072-2.7s-1.774-4.37-6.747-5.724c-4.98-1.347-8.522.827-14.19-2.212-5.225-2.805-11.681-5.506-18.123-2.685a2.146 2.146 0 0 0-1.231 2.452l.015.075c.237 1.008 1.163 1.685 2.211 1.663 2.195-.053 6.089.293 9.746 2.881 6.311 4.468 28.319 13.848 28.319 13.848Z"/>
  <path stroke="#444359" stroke-linecap="round" stroke-miterlimit="10" stroke-width="1.593" d="m273.808 364.073 20.777-2.009m-47.199-6.845 11.589 8.252"/>
  <path fill="#1D1D1D" d="M244.395 242.924c.49 4.709 4.659 8.139 9.31 7.672 4.651-.466 8.025-4.663 7.535-9.365-.49-4.708-4.659-8.138-9.31-7.672-4.643.459-8.017 4.656-7.535 9.365Z"/>
  <path fill="#1D1D1D" d="M261.768 246.346s-14.78-2.196-17.105-15.909c-2.05-12.118 6.219-21.828 15.284-23.506.008 0 21.787 33.007 1.821 39.415Z"/>
  <path fill="#FDBCA0" d="M262.105 208.233a11.992 11.992 0 0 0-3.06 2.113c-8.423 7.966-3.091 23.431 4.452 30.412 4.177 3.858 10.281 5.656 15.613 3.685 7.795-2.881 10.236-11.561 8.652-19.294-1.178-5.761-4.429-11.2-9.226-14.585-4.796-3.377-11.275-4.806-16.431-2.331Z"/>
  <path fill="#FDBCA0" d="M260.705 236.094c-1.477 1.437-4.047 2.023-6.021 1.339-1.973-.685-3.595-2.513-4.108-4.634-.459-1.903.039-4.069 1.461-5.235 1.423-1.166 3.986-1.091 5.202.421l3.466 8.109Z"/>
  <path fill="#FDBCA0" d="m258.547 231.039 1.553 27.335c.207 5.055 4.376 9.071 9.517 9.169 5.936.121 10.595-4.979 9.837-10.771l-3.136-25.379-17.771-.354Z"/>
  <path fill="#DF8370" d="m278.429 248.527-.39-3.745s-7.65 2.309-14.542-4.032c0 .007 3.97 7.131 14.932 7.777Z"/>
  <path fill="#1D1D1D" d="M255.51 226.909c9.96-.504 19.048-7.078 24.067-15.547 0 0-9.165-8.553-22.56-3.551-11.099 4.137-1.507 19.098-1.507 19.098Z"/>
  <path stroke="#444359" stroke-linecap="round" stroke-miterlimit="10" stroke-width="1.114" d="M256.604 233.198c-1.147.113-2.149-.497-2.241-1.362-.069-.654.398-1.263 1.117-1.579"/>
  <path fill="#444359" d="M280.533 231.061c.23-.684.627-1.226 1.071-1.737l.214.662c-.505-.188-.78-.474-1.063-.752a7.948 7.948 0 0 1-.719-.903 9.123 9.123 0 0 1-1.048-1.986c.535.534 1.025 1.083 1.537 1.61.26.256.505.519.773.745.252.218.551.443.757.496l.62.143-.405.519c-.414.534-.873 1.03-1.507 1.392a.161.161 0 0 1-.215-.053.217.217 0 0 1-.015-.136Zm2.241 2.393a3.25 3.25 0 0 1-1.499 1.474c-.665.338-1.492.406-2.226.195-.75-.203-1.331-.684-1.828-1.18a9.388 9.388 0 0 1-.628-.835c-.16-.309-.329-.61-.451-.926.283.211.528.437.773.662l.757.617c.536.346 1.04.722 1.622.858.558.173 1.155.165 1.744.007.581-.165 1.163-.489 1.736-.872Zm-8.009-9.831c.298.872.467 1.775.405 2.745-.038.474-.153.993-.512 1.452-.367.466-.987.669-1.53.654a2.327 2.327 0 0 1-1.484-.587 4.22 4.22 0 0 1-.926-1.143 7.997 7.997 0 0 1-.895-2.625.275.275 0 0 1 .222-.308c.138-.023.26.06.298.18l.008.015c.26.812.604 1.632 1.048 2.339.444.685 1.048 1.317 1.76 1.294.351.015.68-.075.879-.323.222-.241.329-.632.39-1.031.115-.805.039-1.692-.099-2.542v-.015a.223.223 0 0 1 .191-.256c.1-.015.207.053.245.151Zm11.108-1.708c.252.737.39 1.489.374 2.294-.007.399-.084.835-.344 1.249-.252.436-.818.707-1.308.684-.512-.007-.979-.271-1.277-.579a3.936 3.936 0 0 1-.72-1.016 7.52 7.52 0 0 1-.665-2.234c-.023-.143.084-.278.237-.3a.27.27 0 0 1 .291.18l.007.015c.222.677.49 1.369.834 1.971.344.587.811 1.151 1.324 1.121.26.007.466-.068.604-.279.153-.21.229-.534.275-.872.077-.677.016-1.422-.068-2.129v-.015c-.016-.12.076-.233.198-.256.1 0 .207.068.238.166Z"/>
  <path fill="#FEE6C6" d="M294.134 260.856c-.069-4.588-15.2-8.259-15.2-8.259-.949 1.031-2.578 2.768-9.44 2.768-6.563 0-9.187-1.67-10.212-2.768h-6.495c-1.446 0-2.769.813-3.374 2.106-13.012 27.99-5.699 59.251-2.7 74.618.275 1.414 27.432.459 39.68 1.414 2.646.219 8.001-53.202 7.741-69.879Z"/>
  <path fill="#E3AB95" d="M262.533 300.437c1.346-10.696 2.991-17.113 4.253-15.006 1.117 1.865.497 11.222-1.178 20.249.008 0-3.649-.662-3.075-5.243Z"/>
  <path fill="#E3AB95" d="M271.422 300.437c-1.347-10.696-2.991-17.113-4.254-15.006-1.116 1.865-.497 11.222 1.179 20.249-.008 0 3.649-.662 3.075-5.243Z"/>
  <path fill="#E3AB95" d="M316.265 297.782h-17.097l2.715 17.074-31.027-14.885a175.309 175.309 0 0 0-.429-4.055c-1.17 0-2.348 0-3.518-.015.007 1.301.03 2.181.03 2.181s-.604 7.853.78 10.471c2.632 4.98 29.552 21.016 37.025 22.92.467.12.934.21 1.4.27 7.214 1.001 11.995-2.978 11.942-10.139l-1.821-23.822Z"/>
  <path fill="#E3AB95" d="M263.221 295.841a296.788 296.788 0 0 0-.688 4.596l-30.133 13.72 1.27-16.368h-17.097l-1.813 23.837c-.046 7.161 4.735 11.133 11.941 10.14a15.35 15.35 0 0 0 1.4-.271c7.474-1.903 32.512-15.209 37.859-22.972 1.583-2.294.834-10.019.834-10.019s0-1.069-.031-2.588c-1.178-.023-2.356-.045-3.542-.075Z"/>
  <path fill="#FEE6C6" d="M238.046 307.124c6.686-19.445 6.632-19.46 14.84-54.52-5.492.369-6.058-.511-10.388 1.7-12.99 6.635-25.222 28.426-28.825 52.82h24.373Zm59.531-1.918c-3.932-13.773-18.643-52.601-18.643-52.601 14.711-.489 34.784 18.368 39.588 50.081l-20.945 2.52Z"/>
  <path stroke="#EED2AD" stroke-linecap="round" stroke-miterlimit="10" stroke-width="1.593" d="m294.142 274.794-3.098 25.034m-50.183-20.927 2.463 26.779"/>
  <defs>
    <filter id="a" width="256" height="249" x="138" y="157" color-interpolation-filters="sRGB" filterUnits="userSpaceOnUse">
      <feFlood flood-opacity="0" result="BackgroundImageFix"/>
      <feBlend in="SourceGraphic" in2="BackgroundImageFix" result="shape"/>
      <feGaussianBlur result="effect1_foregroundBlur_31_71" stdDeviation="2.5"/>
    </filter>
    <filter id="b" width="216" height="216" x="158" y="180" color-interpolation-filters="sRGB" filterUnits="userSpaceOnUse">
      <feFlood flood-opacity="0" result="BackgroundImageFix"/>
      <feBlend in="SourceGraphic" in2="BackgroundImageFix" result="shape"/>
      <feGaussianBlur result="effect1_foregroundBlur_31_71" stdDeviation="5"/>
    </filter>
    <filter id="d" width="182" height="188" x="175" y="214" color-interpolation-filters="sRGB" filterUnits="userSpaceOnUse">
      <feFlood flood-opacity="0" result="BackgroundImageFix"/>
      <feBlend in="SourceGraphic" in2="BackgroundImageFix" result="shape"/>
      <feGaussianBlur result="effect1_foregroundBlur_31_71" stdDeviation="5"/>
    </filter>
    <radialGradient id="c" cx="0" cy="0" r="1" gradientTransform="rotate(90 44 222) scale(208)" gradientUnits="userSpaceOnUse">
      <stop stop-color="#6C456C"/>
      <stop offset="1" stop-color="#A633A6" stop-opacity="0"/>
    </radialGradient>
  </defs>
</svg>
