<svg width="57" height="81" viewBox="0 0 57 81" fill="none" xmlns="http://www.w3.org/2000/svg">
<g id="Group 6">
<g id="Group 3">
<path id="Rectangle 4" d="M2 28.5C2 13.8645 13.8645 2 28.5 2C43.1355 2 55 13.8645 55 28.5V52.5C55 67.1355 43.1355 79 28.5 79C13.8645 79 2 67.1356 2 52.5V28.5Z" stroke="url(#paint0_linear_18_4)" stroke-width="4"/>
<path id="M" d="M22.9202 51.2454L21.5402 48.1254L20.9102 51.2454L18.8702 61.5354H15.5402L20.1002 39.4854H20.4602L26.5202 51.3954L28.3202 55.3854L30.1202 51.3954L36.0602 39.4854H36.3902L41.1302 61.5354H37.8302L35.6102 51.2454L34.9502 48.1254L33.7502 51.2454L28.4102 61.5354H28.2302L22.9202 51.2454Z" fill="white"/>
<path id="V" d="M17.52 17.95H21.33L27.93 33.1L34.56 17.95H38.34L28.17 40H27.72L17.52 17.95Z" fill="white"/>
</g>
</g>
<defs>
<linearGradient id="paint0_linear_18_4" x1="-151.311" y1="23.1429" x2="-112.97" y2="106.561" gradientUnits="userSpaceOnUse">
<stop stop-color="#F8F8F8"/>
<stop offset="1" stop-color="white"/>
</linearGradient>
</defs>
</svg>
