<svg xmlns="http://www.w3.org/2000/svg" xmlns:xlink="http://www.w3.org/1999/xlink" width="1440" height="1042" fill="none" viewBox="0 0 1440 1042">
  <path fill="url(#a)" d="M0 0h1440v1040H0z"/>
  <ellipse cx="80" cy="13" fill="url(#b)" fill-opacity=".4" rx="487" ry="501"/>
  <ellipse cx="247.5" cy="759.5" fill="url(#c)" fill-opacity=".2" rx="377.5" ry="280.5"/>
  <ellipse cx="1324" cy="2" fill="url(#d)" fill-opacity=".4" rx="641" ry="490"/>
  <ellipse cx="1440" cy="683.5" fill="url(#e)" fill-opacity=".4" rx="720" ry="356.5"/>
  <ellipse cx="740" cy="500.5" fill="url(#f)" fill-opacity=".5" rx="119" ry="110.5"/>
  <rect width="1440" height="1040" x="6" y="2" fill="url(#g)" rx="20"/>
  <path fill="url(#h)" d="M0 0h991v870H0z" transform="matrix(-1 0 0 1 1446 170)"/>
  <defs>
    <radialGradient id="a" cx="0" cy="0" r="1" gradientTransform="matrix(.54459 588.72775 -801.80466 .74169 720 520.678)" gradientUnits="userSpaceOnUse">
      <stop offset=".021" stop-color="#F70478"/>
      <stop offset="1" stop-color="#FF6B00" stop-opacity=".88"/>
    </radialGradient>
    <radialGradient id="b" cx="0" cy="0" r="1" gradientTransform="matrix(0 501 -487 0 80 13)" gradientUnits="userSpaceOnUse">
      <stop stop-color="red"/>
      <stop offset="1" stop-color="red" stop-opacity="0"/>
    </radialGradient>
    <radialGradient id="c" cx="0" cy="0" r="1" gradientTransform="matrix(0 280.5 -377.5 0 247.5 759.5)" gradientUnits="userSpaceOnUse">
      <stop stop-color="#FF00D6"/>
      <stop offset="1" stop-color="#F120F5" stop-opacity="0"/>
    </radialGradient>
    <radialGradient id="d" cx="0" cy="0" r="1" gradientTransform="matrix(0 490 -641 0 1324 2)" gradientUnits="userSpaceOnUse">
      <stop stop-color="#FF00D6"/>
      <stop offset="1" stop-color="#F120F5" stop-opacity="0"/>
    </radialGradient>
    <radialGradient id="e" cx="0" cy="0" r="1" gradientTransform="matrix(0 356.5 -720 0 1440 683.5)" gradientUnits="userSpaceOnUse">
      <stop stop-color="red"/>
      <stop offset="1" stop-color="red" stop-opacity="0"/>
    </radialGradient>
    <radialGradient id="f" cx="0" cy="0" r="1" gradientTransform="matrix(0 110.5 -119 0 740 500.5)" gradientUnits="userSpaceOnUse">
      <stop stop-color="#FF003D"/>
      <stop offset="1" stop-color="#FF0541" stop-opacity="0"/>
    </radialGradient>
    <linearGradient id="g" x1="726" x2="726" y1="2" y2="1042" gradientUnits="userSpaceOnUse">
      <stop stop-color="#D9D9D9" stop-opacity=".16"/>
      <stop offset="1" stop-color="#D9D9D9" stop-opacity=".16"/>
    </linearGradient>
    <pattern id="h" width="1" height="1" patternContentUnits="objectBoundingBox">
      <use xlink:href="#i" transform="matrix(.0025 0 0 .00285 0 -.07)"/>
    </pattern>
  </defs>
</svg>
